<?xml version="1.0" encoding="utf-8"?>
<!-- Generator: Adobe Illustrator 27.5.0, SVG Export Plug-In . SVG Version: 6.00 Build 0)  -->
<svg version="1.1" id="레이어_1" xmlns="http://www.w3.org/2000/svg" xmlns:xlink="http://www.w3.org/1999/xlink" x="0px"
	 y="0px" viewBox="0 0 858.67 1002.33" style="enable-background:new 0 0 858.67 1002.33;" xml:space="preserve">
<style type="text/css">
	.st0{fill:#231815;}
	.st1{font-family:'NanumSquareR';}
	.st2{font-size:18px;}
	.st3{fill-rule:evenodd;clip-rule:evenodd;fill:#EEEEEF;}
	.st4{fill:none;stroke:#231815;stroke-width:0.6461;stroke-linejoin:round;stroke-miterlimit:10;}
	
		.st5{fill:none;stroke:#231815;stroke-width:0.6461;stroke-linejoin:round;stroke-miterlimit:10;stroke-dasharray:7316.083,21948.248;}
	
		.st6{fill:none;stroke:#231815;stroke-width:0.6461;stroke-linejoin:round;stroke-miterlimit:10;stroke-dasharray:6532.2168,19596.6504;}
	.st7{fill:none;stroke:#404040;stroke-width:0.6461;stroke-linejoin:round;stroke-miterlimit:10;}
	.st8{font-family:'NanumSquareB';}
	.st9{font-size:15.5061px;}
	.st10{letter-spacing:-1;}
	.st11{fill-rule:evenodd;clip-rule:evenodd;fill:none;}
	.st12{fill:none;}
	.st13{fill-rule:evenodd;clip-rule:evenodd;fill:none;stroke:#000000;stroke-miterlimit:10;}
	.st14{fill:#2F318D;}
	.st15{fill:#FFFFFF;}
	.st16{font-size:22px;}
	.st17{font-size:15px;}
	.st18{fill:none;stroke:#040000;stroke-width:0.91;stroke-linejoin:round;stroke-miterlimit:10;}
	.st19{fill:none;stroke:#040000;stroke-linejoin:round;stroke-miterlimit:10;}
	.st20{fill:none;stroke:#040000;stroke-width:0.455;stroke-linejoin:round;stroke-miterlimit:10;}
	.st21{fill:none;stroke:#040000;stroke-width:0.5;stroke-linejoin:round;stroke-miterlimit:10;}
	.st22{fill:none;stroke:#040000;stroke-width:0.6095;stroke-linejoin:round;stroke-miterlimit:10;}
	.st23{fill:none;stroke:#040000;stroke-width:0.4492;stroke-linejoin:round;stroke-miterlimit:10;}
	.st24{fill:#040000;}
	.st25{letter-spacing:-1.11;}
</style>
<text transform="matrix(1 0 0 1 90.0526 62.1379)" class="st0 st1 st2">용지별 면적</text>
<g>
	<g>
		<polygon class="st3" points="84.5,100.08 280.55,100.08 280.55,130.85 84.5,130.85 84.5,100.08 		"/>
		<polygon class="st3" points="280.55,100.08 453.04,100.08 453.04,130.85 280.55,130.85 280.55,100.08 		"/>
		<polygon class="st3" points="453.04,100.08 625.52,100.08 625.52,130.85 453.04,130.85 453.04,100.08 		"/>
		<polygon class="st3" points="625.52,100.08 798,100.08 798,130.85 625.52,130.85 625.52,100.08 		"/>
		<line class="st4" x1="113.31" y1="193.59" x2="113.31" y2="257.13"/>
		<line class="st4" x1="113.31" y1="319.62" x2="113.31" y2="351.13"/>
		<line class="st4" x1="113.31" y1="351.13" x2="113.31" y2="380.71"/>
		<line class="st4" x1="113.31" y1="380.71" x2="113.31" y2="417.08"/>
		<line class="st4" x1="113.31" y1="479.55" x2="113.31" y2="517.09"/>
		<line class="st4" x1="113.31" y1="510.91" x2="113.31" y2="547.42"/>
		<line class="st4" x1="280.55" y1="99.81" x2="280.55" y2="320.1"/>
		<line class="st4" x1="280.55" y1="320.1" x2="280.55" y2="351.13"/>
		<line class="st4" x1="280.55" y1="347.41" x2="280.55" y2="547.4"/>
		<line class="st4" x1="453.04" y1="99.81" x2="453.04" y2="320.1"/>
		<line class="st4" x1="453.04" y1="320.1" x2="453.04" y2="351.13"/>
		<line class="st4" x1="453.04" y1="347.41" x2="453.04" y2="547.4"/>
		<line class="st4" x1="625.52" y1="99.81" x2="625.52" y2="320.1"/>
		<line class="st4" x1="625.52" y1="320.1" x2="625.52" y2="351.13"/>
		<line class="st4" x1="625.52" y1="347.41" x2="625.52" y2="547.4"/>
		<line class="st4" x1="84.19" y1="130.85" x2="798.31" y2="130.85"/>
		<line class="st4" x1="84.19" y1="162.35" x2="798.31" y2="162.35"/>
		<line class="st4" x1="113" y1="193.86" x2="798.31" y2="193.86"/>
		<line class="st5" x1="113" y1="225.36" x2="798.31" y2="225.36"/>
		<line class="st4" x1="84.19" y1="256.86" x2="798.31" y2="256.86"/>
		<line class="st4" x1="84.19" y1="288.36" x2="798.31" y2="288.36"/>
		<line class="st4" x1="113.03" y1="319.86" x2="798.31" y2="319.86"/>
		<line class="st6" x1="113" y1="351.37" x2="798.31" y2="351.37"/>
		<line class="st4" x1="113" y1="382.87" x2="798" y2="382.87"/>
		<line class="st4" x1="84.19" y1="416.81" x2="280.24" y2="416.81"/>
		<line class="st4" x1="280.24" y1="416.81" x2="798.31" y2="416.81"/>
		<line class="st4" x1="84.19" y1="448.31" x2="798.31" y2="448.31"/>
		<line class="st4" x1="113" y1="481.11" x2="798.31" y2="481.11"/>
		<line class="st6" x1="113" y1="512.97" x2="798.31" y2="512.97"/>
		<line class="st7" x1="84.5" y1="99.81" x2="84.5" y2="547.42"/>
		<line class="st4" x1="798" y1="99.81" x2="798" y2="320.1"/>
		<line class="st4" x1="798" y1="320.1" x2="798" y2="351.13"/>
		<line class="st4" x1="798" y1="351.13" x2="798" y2="380.71"/>
		<line class="st4" x1="798" y1="380.71" x2="798" y2="418.97"/>
		<line class="st4" x1="798" y1="414.25" x2="798" y2="547.4"/>
		<line class="st4" x1="84.19" y1="100.08" x2="798.31" y2="100.08"/>
		<line class="st4" x1="84.19" y1="547.42" x2="113.59" y2="547.42"/>
		<line class="st4" x1="113.59" y1="547.42" x2="798.31" y2="547.42"/>
	</g>
	<g>
		<text transform="matrix(1 0 0 1 174.5911 120.7766)"><tspan x="0" y="0" class="st0 st8 st9 st10">구</tspan><tspan x="12.73" y="0" class="st0 st8 st9">분</tspan><tspan x="-0.69" y="31.79" class="st0 st8 st9">합계</tspan><tspan x="-25.46" y="63.58" class="st0 st8 st9 st10">산업시설용</tspan><tspan x="38.19" y="63.58" class="st0 st8 st9">지</tspan><tspan x="-12.73" y="95.36" class="st0 st1 st9 st10">산업시</tspan><tspan x="25.46" y="95.36" class="st0 st1 st9">설</tspan><tspan x="-12.73" y="127.15" class="st0 st1 st9 st10">연구시</tspan><tspan x="25.46" y="127.15" class="st0 st1 st9">설</tspan><tspan x="-14.8" y="158.94" class="st0 st8 st9">복합용지</tspan><tspan x="-14.8" y="190.73" class="st0 st8 st9">주거용지</tspan><tspan x="-28.91" y="222.51" class="st0 st1 st9">근린생활시설</tspan><tspan x="-14.8" y="254.3" class="st0 st1 st9">공동주택</tspan><tspan x="-14.8" y="286.09" class="st0 st8 st9">단독주택</tspan><tspan x="-28.91" y="317.88" class="st0 st8 st9">지원시설용지</tspan><tspan x="-28.91" y="349.66" class="st0 st8 st9">공공시설용지</tspan><tspan x="-0.69" y="381.45" class="st0 st1 st9">도로</tspan><tspan x="-7.75" y="413.24" class="st0 st1 st9">주차장</tspan></text>
	</g>
	<rect x="84.14" y="99.66" class="st11" width="602.38" height="443.39"/>
	<g>
		<text transform="matrix(1 0 0 1 337.9188 120.7766)"><tspan x="0" y="0" class="st0 st8 st9 st10">면</tspan><tspan x="12.73" y="0" class="st0 st8 st9">적(㎡)</tspan><tspan x="-6.64" y="31.79" class="st0 st8 st9 st10">2</tspan><tspan x="1.47" y="31.79" class="st0 st8 st9 st10">,</tspan><tspan x="4.75" y="31.79" class="st0 st8 st9 st10">803</tspan><tspan x="29.08" y="31.79" class="st0 st8 st9 st10">,</tspan><tspan x="32.37" y="31.79" class="st0 st8 st9 st10">75</tspan><tspan x="48.59" y="31.79" class="st0 st8 st9">8</tspan><tspan x="-6.64" y="63.58" class="st0 st8 st9 st10">1</tspan><tspan x="1.47" y="63.58" class="st0 st8 st9 st10">,</tspan><tspan x="4.75" y="63.58" class="st0 st8 st9 st10">118</tspan><tspan x="29.08" y="63.58" class="st0 st8 st9 st10">,</tspan><tspan x="32.37" y="63.58" class="st0 st8 st9 st10">59</tspan><tspan x="48.59" y="63.58" class="st0 st8 st9">0</tspan><tspan x="-5.26" y="95.36" class="st0 st1 st9 st10">1</tspan><tspan x="2.68" y="95.36" class="st0 st1 st9 st10">,</tspan><tspan x="5.17" y="95.36" class="st0 st1 st9 st10">100</tspan><tspan x="28.99" y="95.36" class="st0 st1 st9 st10">,</tspan><tspan x="31.48" y="95.36" class="st0 st1 st9 st10">59</tspan><tspan x="47.36" y="95.36" class="st0 st1 st9">3</tspan><tspan x="3.92" y="127.15" class="st0 st1 st9 st10">17</tspan><tspan x="19.8" y="127.15" class="st0 st1 st9 st10">,</tspan><tspan x="22.3" y="127.15" class="st0 st1 st9 st10">99</tspan><tspan x="38.18" y="127.15" class="st0 st1 st9">7</tspan><tspan x="-4.95" y="158.94" class="st0 st8 st9">192,267</tspan><tspan x="-4.95" y="190.73" class="st0 st8 st9">131,353</tspan><tspan x="0.54" y="222.51" class="st0 st1 st9">25,278</tspan><tspan x="0.54" y="254.3" class="st0 st1 st9">66,131</tspan><tspan x="-0.22" y="286.09" class="st0 st8 st9">39,944</tspan><tspan x="-0.22" y="317.88" class="st0 st8 st9">42,444</tspan><tspan x="-11.96" y="349.66" class="st0 st8 st9">1,319,104</tspan><tspan x="-4.11" y="381.45" class="st0 st1 st9">513,674</tspan><tspan x="0.54" y="413.24" class="st0 st1 st9">45,450</tspan></text>
	</g>
	<rect x="84.14" y="99.66" class="st11" width="602.38" height="443.39"/>
	<rect x="84.14" y="99.66" class="st11" width="602.38" height="443.39"/>
	<rect x="84.14" y="99.66" class="st11" width="602.38" height="443.39"/>
	<rect x="84.14" y="99.66" class="st11" width="602.38" height="443.39"/>
	<g>
		<text transform="matrix(1 0 0 1 503.7923 120.7766)"><tspan x="0" y="0" class="st0 st8 st9 st10">면</tspan><tspan x="12.73" y="0" class="st0 st8 st9">적</tspan><tspan x="26.84" y="0" class="st0 st8 st9 st10">(</tspan><tspan x="30.69" y="0" class="st0 st8 st9 st10">3</tspan><tspan x="38.8" y="0" class="st0 st8 st9 st10">.</tspan><tspan x="42.08" y="0" class="st0 st8 st9">3㎡)</tspan><tspan x="4.86" y="31.79" class="st0 st8 st9">848</tspan><tspan x="33.24" y="31.79" class="st0 st8 st9">,</tspan><tspan x="37.86" y="31.79" class="st0 st8 st9">1</tspan><tspan x="47.32" y="31.79" class="st0 st8 st9">3</tspan><tspan x="56.56" y="31.79" class="st0 st8 st9">7</tspan><tspan x="4.86" y="63.58" class="st0 st8 st9">338</tspan><tspan x="33.24" y="63.58" class="st0 st8 st9">,</tspan><tspan x="37.86" y="63.58" class="st0 st8 st9">3</tspan><tspan x="47.32" y="63.58" class="st0 st8 st9">7</tspan><tspan x="56.56" y="63.58" class="st0 st8 st9">3</tspan><tspan x="5.71" y="95.36" class="st0 st1 st9">332</tspan><tspan x="33.62" y="95.36" class="st0 st1 st9">,</tspan><tspan x="37.48" y="95.36" class="st0 st1 st9">9</tspan><tspan x="46.78" y="95.36" class="st0 st1 st9">2</tspan><tspan x="55.87" y="95.36" class="st0 st1 st9">9</tspan><tspan x="14.9" y="127.15" class="st0 st1 st9">5</tspan><tspan x="24.2" y="127.15" class="st0 st1 st9">,</tspan><tspan x="28.07" y="127.15" class="st0 st1 st9">444</tspan><tspan x="9.51" y="158.94" class="st0 st8 st9">58,161</tspan><tspan x="9.51" y="190.73" class="st0 st8 st9">39,734</tspan><tspan x="14.93" y="222.51" class="st0 st1 st9">7,647</tspan><tspan x="10.28" y="254.3" class="st0 st1 st9">20,005</tspan><tspan x="9.51" y="286.09" class="st0 st8 st9">12,083</tspan><tspan x="9.51" y="317.88" class="st0 st8 st9">12,839</tspan><tspan x="4.78" y="349.66" class="st0 st8 st9">399,029</tspan><tspan x="5.63" y="381.45" class="st0 st1 st9">155,386</tspan><tspan x="10.28" y="413.24" class="st0 st1 st9">13,749</tspan></text>
	</g>
	<rect x="84.14" y="99.66" class="st11" width="602.38" height="443.39"/>
	<rect x="84.14" y="99.66" class="st11" width="602.38" height="443.39"/>
	<rect x="84.14" y="99.66" class="st11" width="602.38" height="443.39"/>
	<rect x="84.14" y="99.66" class="st11" width="602.38" height="443.39"/>
	<text transform="matrix(1 0 0 1 684.2484 120.7766)"><tspan x="0" y="0" class="st0 st8 st9 st10">구성</tspan><tspan x="25.46" y="0" class="st0 st8 st9">비</tspan><tspan x="39.57" y="0" class="st0 st8 st9 st10">(</tspan><tspan x="43.42" y="0" class="st0 st8 st9 st10">%</tspan><tspan x="55.96" y="0" class="st0 st8 st9">)</tspan><tspan x="11.51" y="31.79" class="st0 st8 st9 st10">100</tspan><tspan x="35.83" y="31.79" class="st0 st8 st9">%</tspan><tspan x="9.86" y="63.58" class="st0 st8 st9 st10">39</tspan><tspan x="26.08" y="63.58" class="st0 st8 st9 st10">.</tspan><tspan x="29.37" y="63.58" class="st0 st8 st9 st10">9</tspan><tspan x="37.48" y="63.58" class="st0 st8 st9">%</tspan><tspan x="8" y="95.36" class="st0 st1 st9">39.3%</tspan><tspan x="12.65" y="127.15" class="st0 st1 st9">0.6%</tspan><tspan x="11.93" y="158.94" class="st0 st8 st9">6.9%</tspan><tspan x="11.93" y="190.73" class="st0 st8 st9">4.7%</tspan><tspan x="12.65" y="222.51" class="st0 st1 st9">0.9%</tspan><tspan x="12.65" y="254.3" class="st0 st1 st9">2.4%</tspan><tspan x="11.93" y="286.09" class="st0 st8 st9">1.4%</tspan><tspan x="11.93" y="317.88" class="st0 st8 st9">1.5%</tspan><tspan x="7.2" y="349.66" class="st0 st8 st9">47.0%</tspan><tspan x="8" y="381.45" class="st0 st1 st9">18.3%</tspan><tspan x="12.65" y="413.24" class="st0 st1 st9">1.6%</tspan></text>
	<rect x="84.14" y="99.66" class="st11" width="602.38" height="443.39"/>
	<rect x="84.14" y="99.66" class="st11" width="602.38" height="443.39"/>
	<rect x="84.14" y="99.66" class="st11" width="602.38" height="443.39"/>
	<rect x="84.14" y="99.66" class="st11" width="602.38" height="443.39"/>
	<rect x="84.14" y="99.66" class="st11" width="602.38" height="443.39"/>
	<rect x="84.14" y="99.66" class="st11" width="602.38" height="443.39"/>
	<rect x="84.14" y="99.66" class="st11" width="602.38" height="443.39"/>
	<rect x="84.14" y="99.66" class="st11" width="602.38" height="443.39"/>
	<rect x="84.14" y="99.66" class="st11" width="602.38" height="443.39"/>
	<rect x="84.14" y="99.66" class="st11" width="602.38" height="443.39"/>
	<rect x="84.14" y="99.66" class="st11" width="602.38" height="443.39"/>
	<rect x="84.14" y="99.66" class="st11" width="602.38" height="443.39"/>
	<rect x="84.14" y="99.66" class="st11" width="602.38" height="443.39"/>
	<rect x="84.14" y="99.66" class="st11" width="602.38" height="443.39"/>
	<rect x="84.14" y="99.66" class="st11" width="602.38" height="443.39"/>
	<rect x="84.14" y="99.66" class="st11" width="602.38" height="443.39"/>
	<rect x="84.14" y="99.66" class="st11" width="602.38" height="443.39"/>
	<rect x="84.14" y="99.66" class="st11" width="602.38" height="443.39"/>
	<rect x="84.14" y="99.66" class="st12" width="602.38" height="443.39"/>
	<polygon class="st11" points="84.14,543.05 686.51,543.05 686.51,99.66 84.14,99.66 84.14,543.05 	"/>
	<polygon class="st11" points="84.14,543.05 686.51,543.05 686.51,99.66 84.14,99.66 84.14,543.05 	"/>
	<polygon class="st11" points="84.14,543.05 686.51,543.05 686.51,99.66 84.14,99.66 84.14,543.05 	"/>
	<polygon class="st11" points="84.14,543.05 686.51,543.05 686.51,99.66 84.14,99.66 84.14,543.05 	"/>
	<polygon class="st11" points="84.14,543.05 686.51,543.05 686.51,99.66 84.14,99.66 84.14,543.05 	"/>
	<polygon class="st11" points="84.14,543.05 686.51,543.05 686.51,99.66 84.14,99.66 84.14,543.05 	"/>
	<polygon class="st11" points="84.14,543.05 686.51,543.05 686.51,99.66 84.14,99.66 84.14,543.05 	"/>
	<polygon class="st11" points="84.14,543.05 686.51,543.05 686.51,99.66 84.14,99.66 84.14,543.05 	"/>
	<polygon class="st11" points="84.14,543.05 686.51,543.05 686.51,99.66 84.14,99.66 84.14,543.05 	"/>
	<polygon class="st11" points="84.14,543.05 686.51,543.05 686.51,99.66 84.14,99.66 84.14,543.05 	"/>
	<polygon class="st11" points="84.14,543.05 686.51,543.05 686.51,99.66 84.14,99.66 84.14,543.05 	"/>
	<polygon class="st11" points="84.14,543.05 686.51,543.05 686.51,99.66 84.14,99.66 84.14,543.05 	"/>
	<polygon class="st11" points="84.14,543.05 686.51,543.05 686.51,99.66 84.14,99.66 84.14,543.05 	"/>
	<polygon class="st11" points="84.14,543.05 686.51,543.05 686.51,99.66 84.14,99.66 84.14,543.05 	"/>
	<polygon class="st11" points="84.14,543.05 686.51,543.05 686.51,99.66 84.14,99.66 84.14,543.05 	"/>
	<polygon class="st11" points="84.14,543.05 686.51,543.05 686.51,99.66 84.14,99.66 84.14,543.05 	"/>
	<polygon class="st11" points="84.14,543.05 686.51,543.05 686.51,99.66 84.14,99.66 84.14,543.05 	"/>
	<polygon class="st11" points="84.14,543.05 686.51,543.05 686.51,99.66 84.14,99.66 84.14,543.05 	"/>
	<polygon class="st11" points="84.14,543.05 686.51,543.05 686.51,99.66 84.14,99.66 84.14,543.05 	"/>
	<polygon class="st11" points="84.14,543.05 686.51,543.05 686.51,99.66 84.14,99.66 84.14,543.05 	"/>
	<polygon class="st11" points="84.14,543.05 686.51,543.05 686.51,99.66 84.14,99.66 84.14,543.05 	"/>
	<polygon class="st11" points="84.14,543.05 686.51,543.05 686.51,99.66 84.14,99.66 84.14,543.05 	"/>
	<polygon class="st11" points="84.14,543.05 686.51,543.05 686.51,99.66 84.14,99.66 84.14,543.05 	"/>
	<polygon class="st11" points="84.14,543.05 686.51,543.05 686.51,99.66 84.14,99.66 84.14,543.05 	"/>
	<polygon class="st11" points="84.14,543.05 686.51,543.05 686.51,99.66 84.14,99.66 84.14,543.05 	"/>
	<polygon class="st11" points="84.14,543.05 686.51,543.05 686.51,99.66 84.14,99.66 84.14,543.05 	"/>
	<polygon class="st13" points="84.14,547.42 798.31,547.42 798.31,99.66 84.14,99.66 84.14,547.42 	"/>
	<rect x="396.46" y="473.56" class="st11" width="14.36" height="0"/>
</g>
<rect x="72.72" y="580.54" class="st14" width="737.01" height="50.67"/>
<text transform="matrix(1 0 0 1 85.3157 612.2068)" class="st15 st8 st16">대금납부방법</text>
<rect x="72.72" y="36.8" class="st14" width="737.01" height="50.67"/>
<text transform="matrix(1 0 0 1 85.3157 68.4713)" class="st15 st8 st16">용지면적</text>
<g>
	<text transform="matrix(0.95 0 0 1 85.3157 662.4537)" class="st0 st8 st17"> 가. 분양대금 납부조건   </text>
</g>
<rect x="85.32" y="807.88" class="st12" width="721.78" height="88.1"/>
<text transform="matrix(0.95 0 0 1 85.3157 820.1378)"><tspan x="0" y="0" class="st0 st8 st17">나. 대금납부 및 연체이자 안내 </tspan><tspan x="0" y="22" class="st0 st1 st17">      - 분양대금의 납부는 계약금, 중도금, 잔금의 순서로 시행사에서 지정한 계좌에 납부하여야 합니다.</tspan><tspan x="0" y="44" class="st0 st1 st17">      - 지연손해금(연체이자율) : 할부원금을 납부약정일에 납부하지 않을 경우 납부 약정일 익일부터 실제 납부일까지 </tspan><tspan x="0" y="66" class="st0 st1 st17">         연체금액에 대하여 연 14.0%의 이율을 적용하여 산정한 지연손해금을 납부하셔야 합니다.</tspan></text>
<g>
	<polygon class="st3" points="74.21,707.79 189.31,707.79 189.31,785.99 74.21,785.99 74.21,707.79 	"/>
	<polygon class="st3" points="74.21,677.61 808.41,677.61 808.41,707.79 74.21,707.79 74.21,677.61 	"/>
	<line class="st18" x1="74.17" y1="677.45" x2="74.17" y2="786.15"/>
	<line class="st19" x1="74.04" y1="677.61" x2="808.19" y2="677.61"/>
	<line class="st20" x1="189.31" y1="677.45" x2="189.31" y2="737.93"/>
	<line class="st20" x1="189.31" y1="737.93" x2="189.31" y2="786.15"/>
	<line class="st21" x1="294.71" y1="677.45" x2="294.71" y2="786.15"/>
	<line class="st21" x1="415.16" y1="677.45" x2="415.16" y2="786.15"/>
	<line class="st22" x1="543.16" y1="677.45" x2="543.16" y2="785.99"/>
	<line class="st20" x1="666.71" y1="677.45" x2="666.71" y2="785.99"/>
	<line class="st21" x1="74.04" y1="707.79" x2="808.41" y2="707.79"/>
	<line class="st23" x1="74.04" y1="738.1" x2="666.71" y2="738.1"/>
	<line class="st18" x1="808.41" y1="677.45" x2="808.41" y2="786.15"/>
	<line class="st19" x1="74.04" y1="785.99" x2="808.41" y2="785.99"/>
	<text transform="matrix(1 0 0 1 117.2142 697.3873)" class="st24 st1 st17">구분</text>
	<text transform="matrix(1 0 0 1 221.3028 697.3872)" class="st24 st1 st17">계약금</text>
	<text transform="matrix(1 0 0 1 324.9698 697.3872)"><tspan x="0" y="0" class="st24 st1 st17 st10">중도</tspan><tspan x="24.9" y="0" class="st24 st1 st17">금 1차</tspan></text>
	<text transform="matrix(1 0 0 1 448.9143 697.3873)"><tspan x="0" y="0" class="st24 st1 st17 st10">중도</tspan><tspan x="24.9" y="0" class="st24 st1 st17">금 2차</tspan></text>
	<text transform="matrix(1 0 0 1 591.3784 697.3872)"><tspan x="0" y="0" class="st24 st1 st17 st10">잔</tspan><tspan x="12.45" y="0" class="st24 st1 st17">금</tspan></text>
	<text transform="matrix(1 0 0 1 725.4371 697.3872)" class="st24 st1 st17">비고</text>
	<text transform="matrix(1 0 0 1 106.6544 727.3751)"><tspan x="0" y="0" class="st24 st1 st17 st10">납부비</tspan><tspan x="37.35" y="0" class="st24 st1 st17">율</tspan></text>
	<text transform="matrix(1 0 0 1 227.46 727.375)"><tspan x="0" y="0" class="st24 st1 st17 st10">10</tspan><tspan x="15.6" y="0" class="st24 st1 st17">%</tspan></text>
	<text transform="matrix(1 0 0 1 343.1273 727.375)"><tspan x="0" y="0" class="st24 st1 st17 st10">40</tspan><tspan x="15.6" y="0" class="st24 st1 st17">%</tspan></text>
	<text transform="matrix(1 0 0 1 467.071 727.375)"><tspan x="0" y="0" class="st24 st1 st17 st10">40</tspan><tspan x="15.6" y="0" class="st24 st1 st17">%</tspan></text>
	<text transform="matrix(1 0 0 1 590.1104 727.375)"><tspan x="0" y="0" class="st24 st1 st17 st10">10</tspan><tspan x="15.6" y="0" class="st24 st1 st17">%</tspan></text>
	<text transform="matrix(0.95 0 0 1 674.6779 731.8011)"><tspan x="0" y="0" class="st24 st1 st17">[중도금대출 조건]</tspan><tspan x="0" y="18" class="st24 st1 st17">-중도금대출 은행 알선</tspan><tspan x="0" y="36" class="st24 st1 st17">-중도금대출 유이자</tspan></text>
	<text transform="matrix(1 0 0 1 106.6544 767.0594)"><tspan x="0" y="0" class="st24 st1 st17 st10">납부기</tspan><tspan x="37.35" y="0" class="st24 st1 st17">한</tspan></text>
	<text transform="matrix(1 0 0 1 222.5028 767.0597)"><tspan x="0" y="0" class="st24 st1 st17 st10">계약</tspan><tspan x="24.9" y="0" class="st24 st1 st17">일</tspan></text>
	<text transform="matrix(1 0 0 1 319.4952 758.0594)"><tspan x="0" y="0" class="st24 st1 st17 st10">계약일로부</tspan><tspan x="62.25" y="0" class="st24 st1 st17">터</tspan><tspan x="11.1" y="18" class="st24 st1 st17">2개월 후</tspan></text>
	<text transform="matrix(0.9 0 0 1 425.9043 758.0596)"><tspan x="0" y="0" class="st24 st1 st17 st25">중도</tspan><tspan x="24.9" y="0" class="st24 st1 st17">금 1차일로 부터</tspan><tspan x="34.8" y="18" class="st24 st1 st17">2개월 후</tspan></text>
	<text transform="matrix(0.9 0 0 1 555.2891 758.0596)"><tspan x="0" y="0" class="st24 st1 st17">사업준공일로부터</tspan><tspan x="27.75" y="18" class="st24 st1 st17">1개월 후</tspan></text>
</g>
</svg>
