<?xml version="1.0" encoding="utf-8"?>
<!-- Generator: Adobe Illustrator 16.0.0, SVG Export Plug-In . SVG Version: 6.00 Build 0)  -->
<!DOCTYPE svg PUBLIC "-//W3C//DTD SVG 1.1//EN" "http://www.w3.org/Graphics/SVG/1.1/DTD/svg11.dtd">
<svg version="1.1" id="Layer_1" xmlns="http://www.w3.org/2000/svg" xmlns:xlink="http://www.w3.org/1999/xlink" x="0px" y="0px"
	 width="18px" height="18px" viewBox="0 0 18 18" enable-background="new 0 0 18 18" xml:space="preserve">
<path fill="#362515" d="M10.221,9l7.527-7.526c0.337-0.338,0.337-0.884,0-1.222c-0.338-0.337-0.885-0.337-1.221,0L9,7.779
	L1.473,0.253c-0.337-0.337-0.884-0.337-1.221,0c-0.337,0.338-0.337,0.884,0,1.222l7.527,7.526l-7.525,7.526
	c-0.337,0.337-0.337,0.884,0,1.222c0.169,0.168,0.389,0.252,0.61,0.252c0.221,0,0.442-0.084,0.61-0.252L9,10.223l7.527,7.526
	c0.168,0.168,0.389,0.252,0.607,0.252s0.44-0.084,0.608-0.252c0.338-0.338,0.338-0.885,0-1.222L10.221,9z"/>
</svg>
