<?xml version="1.0" encoding="utf-8"?>
<!-- Generator: Adobe Illustrator 27.4.0, SVG Export Plug-In . SVG Version: 6.00 Build 0)  -->
<svg version="1.1" id="레이어_1" xmlns="http://www.w3.org/2000/svg" xmlns:xlink="http://www.w3.org/1999/xlink" x="0px"
	 y="0px" viewBox="0 0 1420.67 622.22" style="enable-background:new 0 0 1420.67 622.22;" xml:space="preserve">
<style type="text/css">
	.st0{fill:#FFFFFF;}
	.st1{font-family:'NanumSquareR';}
	.st2{font-size:33.9161px;}
	.st3{font-size:86.4908px;}
	.st4{fill:none;stroke:#000000;stroke-miterlimit:10;}
</style>
	<g>
	<path class="st0" d="M444.69,330.16V198.45h-80.93v25.01c0,2.22-1.8,4.02-4.02,4.02h-25.44v103.11h110.43
		C444.72,330.44,444.69,330.31,444.69,330.16z M389.58,226.1c7.13,0,13.59,2.93,18.24,7.64l4.95-4.65c1.62-1.52,4.16-1.43,5.68,0.18
		c1.52,1.62,1.44,4.16-0.18,5.68l-5.74,5.39c1.73,3.45,2.72,7.32,2.72,11.44c0,14.16-11.52,25.67-25.67,25.67
		c-14.16,0-25.67-11.52-25.67-25.67C363.91,237.61,375.42,226.1,389.58,226.1z M425.36,314.52h-69.63c-2.22,0-4.02-1.8-4.02-4.02
		c0-2.22,1.8-4.02,4.02-4.02h69.63c2.22,0,4.02,1.8,4.02,4.02C429.38,312.72,427.58,314.52,425.36,314.52z M425.36,295.77h-69.63
		c-2.22,0-4.02-1.8-4.02-4.02c0-2.22,1.8-4.02,4.02-4.02h69.63c2.22,0,4.02,1.8,4.02,4.02
		C429.38,293.97,427.58,295.77,425.36,295.77z"/>
		<polygon class="st0" points="355.73,200.03 336.64,219.45 355.73,219.45 	"/>
		<path class="st0" d="M389.58,269.41c9.73,0,17.64-7.91,17.64-17.64c0-1.95-0.33-3.83-0.92-5.58l-13.97,13.11
		c-0.75,0.7-1.73,1.09-2.75,1.09c-0.08,0-0.15,0-0.23,0c-1.1-0.06-2.12-0.58-2.84-1.42l-8.47-9.99c-1.43-1.69-1.22-4.23,0.47-5.66
		c1.69-1.43,4.23-1.22,5.66,0.47l5.73,6.77l12.06-11.32c-3.19-3.15-7.56-5.1-12.39-5.1c-9.73,0-17.64,7.91-17.64,17.64
		S379.85,269.41,389.58,269.41z"/>
		<path class="st0" d="M318.83,334.6c0-2.22,1.8-4.02,4.02-4.02h3.42v-75.54h-23.83v96.41h175.42v-96.41h-25.13v75.11
		c0,0.15-0.03,0.29-0.04,0.43h5.9c2.22,0,4.02,1.8,4.02,4.02c0,2.22-1.8,4.02-4.02,4.02H322.85
		C320.63,338.62,318.83,336.82,318.83,334.6z"/>
		<path class="st0" d="M491.91,236.3h-39.19v10.71h29.15c2.22,0,4.02,1.8,4.02,4.02v104.45c0,2.22-1.8,4.02-4.02,4.02H298.42
		c-2.22,0-4.02-1.8-4.02-4.02V251.03c0-2.22,1.8-4.02,4.02-4.02h27.85V236.3h-36.55c-2.58,0-4.69,2.1-4.69,4.69v134.97
		c0,2.73,2.23,4.96,4.96,4.96h201.65c2.73,0,4.96-2.23,4.96-4.96V240.99C496.6,238.4,494.5,236.3,491.91,236.3z M464.46,375.57
		c-2.96,0-5.36-2.4-5.36-5.36c0-2.96,2.4-5.36,5.36-5.36s5.36,2.4,5.36,5.36C469.82,373.17,467.42,375.57,464.46,375.57z"/>
		<path class="st0" d="M379.43,411.72c0-2.22,1.8-4.02,4.02-4.02h39.91c-2.16-3.98-3.95-9.93-4.27-18.75h-55.66
		c-0.31,8.82-2.1,14.77-4.27,18.75h9.5c2.22,0,4.02,1.8,4.02,4.02c0,2.22-1.8,4.02-4.02,4.02h-39.44c-5.24,0-9.71,3.36-11.36,8.03
		h145.92c-1.66-4.68-6.13-8.03-11.36-8.03h-19.6c-0.01,0-0.01,0-0.02,0c-0.01,0-0.01,0-0.02,0h-49.33
		C381.23,415.74,379.43,413.94,379.43,411.72z"/>
		<path d="M491.91,228.27h-39.19v-33.83c0-2.22-1.8-4.02-4.02-4.02H355.6c-1.08,0-2.11,0.43-2.86,1.2l-25.31,25.74
		c-0.74,0.75-1.15,1.76-1.15,2.82v8.1h-36.55c-7.01,0-12.72,5.71-12.72,12.72v134.97c0,7.16,5.83,12.99,12.99,12.99h65.42
		c-0.55,14.09-5.31,17.98-6.51,18.75h-19.69c-11.08,0-20.09,9.01-20.09,20.09c0,2.22,1.8,4.02,4.02,4.02h155.33
		c2.22,0,4.02-1.8,4.02-4.02c0-11.08-9.01-20.09-20.09-20.09h-18.73c-1.37-0.86-6.02-4.83-6.57-18.75h64.53
		c7.16,0,12.99-5.83,12.99-12.99V240.99C504.64,233.97,498.93,228.27,491.91,228.27z M355.73,200.03v19.42h-19.09L355.73,200.03z
		 M334.31,227.48h25.44c2.22,0,4.02-1.8,4.02-4.02v-25.01h80.93v131.71c0,0.15,0.03,0.29,0.04,0.43H334.31V227.48z M458.58,338.62
		c2.22,0,4.02-1.8,4.02-4.02c0-2.22-1.8-4.02-4.02-4.02h-5.9c0.02-0.14,0.04-0.28,0.04-0.43v-75.11h25.13v96.41H302.44v-96.41h23.83
		v75.54h-3.42c-2.22,0-4.02,1.8-4.02,4.02c0,2.22,1.8,4.02,4.02,4.02H458.58z M432.78,415.74c0.01,0,0.01,0,0.02,0
		c0.01,0,0.01,0,0.02,0h19.6c5.24,0,9.71,3.36,11.36,8.03H317.85c1.66-4.68,6.13-8.03,11.36-8.03h39.44c2.22,0,4.02-1.8,4.02-4.02
		c0-2.22-1.8-4.02-4.02-4.02h-9.5c2.16-3.98,3.95-9.93,4.27-18.75h55.66c0.31,8.82,2.1,14.77,4.27,18.75h-39.91
		c-2.22,0-4.02,1.8-4.02,4.02c0,2.22,1.8,4.02,4.02,4.02H432.78z M496.6,375.96c0,2.73-2.23,4.96-4.96,4.96H289.99
		c-2.73,0-4.96-2.23-4.96-4.96V240.99c0-2.58,2.1-4.69,4.69-4.69h36.55v10.71h-27.85c-2.22,0-4.02,1.8-4.02,4.02v104.45
		c0,2.22,1.8,4.02,4.02,4.02h183.45c2.22,0,4.02-1.8,4.02-4.02V251.03c0-2.22-1.8-4.02-4.02-4.02h-29.15V236.3h39.19
		c2.58,0,4.69,2.1,4.69,4.69V375.96z"/>
		<circle cx="464.46" cy="370.21" r="5.36"/>
		<path d="M425.36,306.48h-69.63c-2.22,0-4.02,1.8-4.02,4.02c0,2.22,1.8,4.02,4.02,4.02h69.63c2.22,0,4.02-1.8,4.02-4.02
		C429.38,308.28,427.58,306.48,425.36,306.48z"/>
		<path d="M425.36,287.74h-69.63c-2.22,0-4.02,1.8-4.02,4.02c0,2.22,1.8,4.02,4.02,4.02h69.63c2.22,0,4.02-1.8,4.02-4.02
		C429.38,289.54,427.58,287.74,425.36,287.74z"/>
		<path d="M389.58,277.44c14.16,0,25.67-11.52,25.67-25.67c0-4.11-1-7.99-2.72-11.44l5.74-5.39c1.62-1.52,1.7-4.06,0.18-5.68
		c-1.52-1.61-4.06-1.7-5.68-0.18l-4.95,4.65c-4.66-4.71-11.11-7.64-18.24-7.64c-14.16,0-25.67,11.52-25.67,25.67
		C363.91,265.93,375.42,277.44,389.58,277.44z M389.58,234.13c4.83,0,9.2,1.95,12.39,5.1l-12.06,11.32l-5.73-6.77
		c-1.43-1.69-3.97-1.9-5.66-0.47c-1.69,1.44-1.9,3.97-0.47,5.66l8.47,9.99c0.71,0.84,1.74,1.35,2.84,1.42c0.08,0,0.15,0,0.23,0
		c1.02,0,2-0.39,2.75-1.09l13.97-13.11c0.59,1.76,0.92,3.63,0.92,5.58c0,9.73-7.91,17.64-17.64,17.64
		c-9.73,0-17.64-7.91-17.64-17.64S379.85,234.13,389.58,234.13z"/>
</g>
	<g>
	<g>
		<text transform="matrix(1 0 0 1 693.5753 378.6503)"><tspan x="0" y="0" class="st1 st2">관심고객이 되시면 분양정보를</tspan><tspan x="0" y="40.7" class="st1 st2">받아보실 수 있습니다.</tspan></text>
	</g>
		<text transform="matrix(1 0 0 1 666.5484 265.3066)" class="st1 st3">관심고객등록</text>
		<line class="st4" x1="670.5" y1="318.48" x2="1134.83" y2="318.48"/>
</g>
</svg>
