<?xml version="1.0" standalone="no"?>
<!DOCTYPE svg PUBLIC "-//W3C//DTD SVG 20010904//EN"
 "http://www.w3.org/TR/2001/REC-SVG-20010904/DTD/svg10.dtd">
<svg version="1.0" xmlns="http://www.w3.org/2000/svg"
 width="1920.000000pt" height="1080.000000pt" viewBox="0 0 1920.000000 1080.000000"
 preserveAspectRatio="xMidYMid meet">

<g transform="translate(0.000000,1080.000000) scale(0.100000,-0.100000)"
fill="#000000" stroke="none">
<path d="M9407 10304 c-363 -65 -678 -317 -818 -653 -60 -145 -80 -248 -80
-421 0 -139 3 -167 30 -271 97 -383 388 -679 771 -785 74 -20 126 -27 238 -31
219 -8 367 23 547 115 637 328 792 1160 316 1697 -247 279 -639 415 -1004 349z
m423 -194 c323 -91 568 -339 651 -658 26 -100 29 -324 5 -426 -77 -326 -324
-584 -651 -677 -90 -26 -307 -37 -397 -20 -302 57 -545 247 -674 526 -59 129
-77 226 -72 405 4 144 7 162 38 254 91 269 286 469 555 572 111 42 194 54 340
49 92 -2 152 -10 205 -25z"/>
<path d="M9230 9535 c0 -12 -16 -15 -85 -15 l-85 0 0 -40 0 -40 77 0 c93 0 89
-19 -7 -31 -34 -4 -64 -9 -66 -12 -3 -3 -2 -21 2 -42 l6 -36 67 7 c36 3 84 13
106 21 22 9 49 15 60 15 11 0 38 -6 60 -15 22 -8 70 -18 106 -21 l67 -7 6 36
c4 21 5 39 2 42 -2 3 -32 8 -66 12 -96 12 -100 31 -7 31 l77 0 0 40 0 40 -85
0 c-69 0 -85 3 -85 15 0 12 -15 15 -75 15 -60 0 -75 -3 -75 -15z"/>
<path d="M9750 9520 c0 -17 -7 -20 -50 -20 l-50 0 0 -45 0 -45 168 2 167 3 3
43 3 42 -50 0 c-44 0 -51 3 -51 20 0 18 -7 20 -70 20 -63 0 -70 -2 -70 -20z"/>
<path d="M10010 9260 l0 -270 65 0 65 0 0 270 0 270 -65 0 -65 0 0 -270z"/>
<path d="M9711 9376 c-51 -28 -65 -98 -31 -153 23 -38 52 -48 140 -48 84 0
124 17 145 62 23 47 13 95 -26 127 -28 24 -39 26 -117 26 -53 -1 -96 -6 -111
-14z m134 -96 c-3 -5 -17 -10 -31 -10 -13 0 -24 5 -24 10 0 6 14 10 31 10 17
0 28 -4 24 -10z"/>
<path d="M9240 9315 c0 -12 -17 -15 -95 -15 l-95 0 0 -45 0 -45 255 0 255 0 0
45 0 45 -95 0 c-78 0 -95 3 -95 15 0 12 -14 15 -65 15 -51 0 -65 -3 -65 -15z"/>
<path d="M9125 9181 c-62 -27 -79 -112 -31 -159 l26 -27 185 0 185 0 26 27
c37 37 37 99 0 136 -26 27 -27 27 -199 29 -94 1 -181 -1 -192 -6z m285 -91 c0
-6 -42 -10 -105 -10 -63 0 -105 4 -105 10 0 6 42 10 105 10 63 0 105 -4 105
-10z"/>
<path d="M9750 9135 c0 -24 -3 -25 -56 -25 l-55 0 3 -47 3 -48 173 -3 172 -2
0 50 0 50 -49 0 c-44 0 -50 3 -53 23 -3 20 -9 22 -70 25 -67 3 -68 3 -68 -23z"/>
<path d="M8251 5804 c-64 -32 -106 -86 -121 -157 -8 -36 -10 -223 -8 -607 3
-550 3 -555 25 -596 25 -47 73 -91 120 -111 27 -11 264 -13 1330 -13 1239 0
1300 1 1339 19 51 23 108 90 123 144 9 30 11 201 9 612 -3 569 -3 570 -25 612
-25 46 -69 84 -126 108 -32 13 -191 15 -1325 15 l-1288 0 -53 -26z m949 -539
l0 -115 45 0 c45 0 45 0 45 -35 0 -35 0 -35 -45 -35 l-45 0 0 -150 0 -150 -45
0 -45 0 0 300 0 300 45 0 45 0 0 -115z m1192 -12 l-2 -103 35 0 c33 0 35 -2
35 -35 l0 -35 -115 0 -115 0 0 -40 0 -40 85 0 85 0 0 -110 0 -110 -45 0 -45 0
0 75 0 75 -170 0 -170 0 0 35 0 35 85 0 85 0 0 40 0 40 -110 0 -110 0 0 35 0
35 189 0 188 0 7 46 c12 91 26 83 -156 86 -162 3 -163 3 -166 26 -8 53 -8 53
210 50 l203 -3 -3 -102z m-592 -23 l0 -120 -205 0 -205 0 0 120 0 120 205 0
205 0 0 -120z m-840 20 c0 -107 26 -176 86 -229 l45 -40 -22 -30 c-13 -17 -28
-31 -36 -31 -17 0 -89 77 -104 111 -14 36 -25 37 -33 4 -8 -30 -96 -125 -117
-125 -8 0 -23 15 -35 32 l-21 33 36 26 c59 42 91 114 104 230 l11 99 43 0 43
0 0 -80z m910 -235 l0 -35 -115 0 -115 0 0 -100 0 -100 -45 0 -45 0 0 100 0
100 -110 0 -110 0 0 35 0 35 270 0 270 0 0 -35z"/>
<path d="M9480 5230 l0 -50 115 0 115 0 0 50 0 50 -115 0 -115 0 0 -50z"/>
<path d="M8251 3894 c-60 -30 -102 -81 -120 -146 -9 -32 -11 -194 -9 -608 l3
-565 25 -45 c33 -59 97 -106 162 -119 37 -8 430 -11 1313 -9 1204 3 1262 4
1303 22 54 23 116 93 131 148 9 31 11 198 9 614 l-3 571 -30 49 c-19 30 -49
60 -79 79 l-49 30 -1302 3 -1301 2 -53 -26z m649 -539 l0 -115 45 0 c45 0 45
0 45 -34 0 -34 -1 -35 -42 -38 l-43 -3 -3 -148 -3 -148 -42 3 -42 3 -3 285
c-1 157 0 290 3 297 2 8 21 13 45 13 l40 0 0 -115z m1782 48 l3 -68 38 -3 c35
-3 37 -5 37 -38 0 -33 -1 -34 -40 -34 l-40 0 0 -76 0 -75 -42 3 -43 3 -3 165
c-1 90 0 170 2 177 3 8 22 13 45 13 l40 0 3 -67z m-588 -60 l-1 -103 33 0 c32
0 34 -2 34 -35 l0 -35 -110 0 -110 0 0 -40 0 -40 80 0 80 0 0 -110 0 -110 -45
0 -45 0 0 75 0 75 -171 0 -170 0 3 33 3 32 88 3 87 3 0 39 0 40 -115 0 -115 0
0 35 0 35 189 0 189 0 6 31 c3 17 6 47 6 65 l0 34 -160 0 -160 0 0 40 0 40
203 -2 202 -3 -1 -102z m-584 -23 l0 -120 -210 0 -210 0 0 120 0 120 210 0
210 0 0 -120z m1040 75 l0 -35 -55 0 c-49 0 -55 -2 -55 -20 0 -45 71 -130 108
-130 20 0 21 -16 1 -47 -19 -29 -22 -31 -51 -21 -17 6 -48 28 -69 49 l-37 37
-32 -39 c-17 -22 -49 -48 -70 -59 l-39 -20 -22 32 c-22 30 -22 32 -4 42 66 39
115 105 115 156 0 18 -6 20 -55 20 l-55 0 0 35 0 35 160 0 160 0 0 -35z
m-1888 -62 c6 -108 34 -179 91 -228 l39 -34 -22 -30 c-12 -17 -26 -31 -31 -31
-18 0 -88 72 -107 110 l-20 40 -13 -32 c-16 -39 -96 -128 -115 -128 -7 0 -22
13 -34 30 l-21 30 49 48 c59 57 81 115 89 230 l6 82 42 0 43 0 4 -87z m908
-228 l0 -35 -115 0 -115 0 0 -100 0 -100 -45 0 -45 0 0 100 0 100 -110 0 -110
0 0 35 0 35 270 0 270 0 0 -35z m1002 -6 c67 -15 118 -62 118 -109 0 -101
-194 -153 -336 -91 -47 21 -64 45 -64 91 0 42 15 67 50 85 65 33 147 42 232
24z"/>
<path d="M9180 3320 l0 -50 120 0 120 0 0 50 0 50 -120 0 -120 0 0 -50z"/>
<path d="M10428 3033 c-31 -5 -59 -38 -51 -59 13 -33 172 -44 209 -13 20 17
17 47 -7 59 -23 13 -110 21 -151 13z"/>
</g>
</svg>
